<svg xmlns="http://www.w3.org/2000/svg" viewBox="0 0 66 77.82"><defs><style>.cls-1{stroke:#000;}.cls-1,.cls-4,.cls-5,.cls-8{stroke-miterlimit:10;}.cls-2,.cls-3{fill:none;}.cls-2,.cls-4,.cls-8{stroke:#f2f2f2;}.cls-2{stroke-linecap:round;stroke-linejoin:round;stroke-width:1.1px;}.cls-4{fill:#f2f2f2;}.cls-4,.cls-8{stroke-width:0.1px;}.cls-5,.cls-8{fill:#fff;}.cls-5{stroke:#fff;}.cls-6{fill:#231f20;}.cls-7{fill:#eeb71c;}</style></defs><title>ameys-almuda-logo-black-variant-1-v1.1</title><g id="Layer_2" data-name="Layer 2"><rect class="cls-1" x="0.5" y="0.5" width="65" height="76.82"/></g><g id="Layer_1" data-name="Layer 1"><line class="cls-2" x1="23.12" y1="45.08" x2="32.28" y2="67.99"/><line class="cls-2" x1="21.02" y1="45.29" x2="30.1" y2="68"/><line class="cls-2" x1="18.89" y1="45.29" x2="27.97" y2="67.99"/><line class="cls-2" x1="16.83" y1="45.67" x2="25.85" y2="68.21"/><line class="cls-2" x1="16.75" y1="45.48" x2="8" y2="67.99"/><line class="cls-2" x1="16.9" y1="50.13" x2="9.95" y2="68.05"/><line class="cls-2" x1="18.26" y1="52.55" x2="12.41" y2="67.85"/><line class="cls-2" x1="19.41" y1="55.28" x2="14.49" y2="68.03"/><line class="cls-2" x1="18.69" y1="60.9" x2="21.59" y2="60.97"/><line class="cls-2" x1="18.05" y1="63.04" x2="22.54" y2="63.14"/><line class="cls-2" x1="17.35" y1="65.07" x2="23.23" y2="65.26"/><path class="cls-3" d="M47.36,28.73" transform="translate(-16.8 -7.72)"/><path class="cls-4" d="M68.71,45.26c-.24.29-.59.18-.78.48a.84.84,0,0,0-.09.61l-36.31.09a1,1,0,0,0-.26-.59c-.27-.29-.57-.18-.8-.44a1,1,0,0,1-.09-.94,1.07,1.07,0,0,1,.83-.69,1,1,0,0,1,1,.72c.17.49-.18.76,0,1,.33.61,2.49.4,2.74-.35.15-.47-.51-.88-.28-1.42a.83.83,0,0,1,.8-.5.93.93,0,0,1,.75.63c.2.54-.24.89-.09,1.21.34.72,3.23.46,3.49-.48.14-.5-.53-.91-.31-1.54a.94.94,0,0,1,.8-.63,1,1,0,0,1,.88.77c.16.59-.38.92-.25,1.26.3.75,3.48.5,3.66-.33.09-.4-.58-.67-.51-1.31a1.07,1.07,0,0,1,.91-1c.5,0,.88.56.94,1s-.3.66-.26,1.1c0,.66.94,1.27,1.79,1.35.58,0,1.71-.1,2-1a1.72,1.72,0,0,0-1-2c.33-.67.67-1.33,1-2l.5-1,1.5,3a1.69,1.69,0,0,0-1,2,2,2,0,0,0,3.58-.24c.1-.59-.43-.89-.25-1.48a1,1,0,0,1,.9-.75c.5,0,.88.61.93,1.1s-.4.77-.32,1.14c.17.89,3.07,1.33,3.44.62.2-.39-.47-.87-.21-1.54a.93.93,0,0,1,.82-.64,1.05,1.05,0,0,1,.86.9c.1.6-.41.84-.32,1.24.2,1,3.57,1.27,3.87.54.12-.29-.3-.58-.14-1.07a.86.86,0,0,1,.75-.62.87.87,0,0,1,.72.74c0,.47-.4.66-.33,1,.15.63,2.41.88,2.71.26.14-.28-.24-.58-.06-1a.92.92,0,0,1,.73-.53.89.89,0,0,1,.91.37A.86.86,0,0,1,68.71,45.26Z" transform="translate(-16.8 -7.72)"/><path class="cls-5" d="M49.2,44.37" transform="translate(-16.8 -7.72)"/><path class="cls-6" d="M50.2,39.37h0Z" transform="translate(-16.8 -7.72)"/><path class="cls-6" d="M49.2,39.37" transform="translate(-16.8 -7.72)"/><path class="cls-7" d="M49.65,17.32a1.56,1.56,0,0,1,1.4,1.43c.06.74-.58,1-.77,1.77-.13.58,0,1.26,1.55,3.34a19.05,19.05,0,0,0,2.69,3.25,12.8,12.8,0,0,0,5.66,2.79A6,6,0,0,1,56,30c-1.65-.68-2.33-2.13-3.26-1.91-.43.1-1,.58-1.38,2.39L51.49,36l-1.84,2.29-1.78-2.13.2-5.82c-.24-1.6-.73-2.09-1.15-2.24-1-.34-1.86,1.1-3.73,1.76a6.93,6.93,0,0,1-4.27,0,16.26,16.26,0,0,0,5.48-2.74,16.06,16.06,0,0,0,3.15-3.3c1.72-2.24,1.62-3,1.54-3.36-.2-.82-.88-1.05-.81-1.8A1.53,1.53,0,0,1,49.65,17.32Z" transform="translate(-16.8 -7.72)"/><path class="cls-3" d="M53.29,31.5" transform="translate(-16.8 -7.72)"/><path class="cls-3" d="M43.6,24.2" transform="translate(-16.8 -7.72)"/><path class="cls-8" d="M62.5,29.09a3.36,3.36,0,0,1-1.28,1.42,24.52,24.52,0,0,1-2.92,2,5.24,5.24,0,0,1,1.19,1.62,5.48,5.48,0,0,1,.47,1.8,19.84,19.84,0,0,1-.22,5.1c.46-.94,1.36-2.71,2.43-4.49a3.61,3.61,0,0,1,1.28-1.37,3.48,3.48,0,0,1,1.84-.45,20,20,0,0,1-1.69-5.44,2.13,2.13,0,0,1,.1-.58c.23-.64.71-.7.82-1.13a1.17,1.17,0,0,0-.76-1.3,1.27,1.27,0,0,0-1.44,1c0,.4.32.61.3,1.25A1.79,1.79,0,0,1,62.5,29.09Z" transform="translate(-16.8 -7.72)"/><path class="cls-8" d="M36.9,29.09a3.36,3.36,0,0,0,1.28,1.42,24.52,24.52,0,0,0,2.92,2,5.24,5.24,0,0,0-1.19,1.62,5.48,5.48,0,0,0-.47,1.8,19.84,19.84,0,0,0,.22,5.1c-.46-.94-1.36-2.71-2.43-4.49A3.61,3.61,0,0,0,36,35.15a3.48,3.48,0,0,0-1.84-.45,20,20,0,0,0,1.69-5.44,2.13,2.13,0,0,0-.1-.58c-.23-.64-.71-.7-.82-1.13a1.17,1.17,0,0,1,.76-1.3,1.27,1.27,0,0,1,1.44,1c0,.4-.32.61-.3,1.25A1.79,1.79,0,0,0,36.9,29.09Z" transform="translate(-16.8 -7.72)"/><path class="cls-7" d="M66.19,33.81l2.18,2.12,3,.62-3.1.77L65,42.85l2.29-6Z" transform="translate(-16.8 -7.72)"/><path class="cls-7" d="M33.21,33.81,31,35.93l-3,.62,3.1.77,3.14,5.08-2.12-5.58Z" transform="translate(-16.8 -7.72)"/><path class="cls-8" d="M69.13,42.76,73,37.35a1.47,1.47,0,0,0,1-1.5.91.91,0,0,0-1.77-.17c-.2.53.28.91.11,1.3s-.5.54-1.84.53Z" transform="translate(-16.8 -7.72)"/><path class="cls-8" d="M30.52,42.76,26.6,37.35a1.47,1.47,0,0,1-1-1.5.91.91,0,0,1,1.77-.17c.2.53-.28.91-.11,1.3s.5.54,1.84.53Z" transform="translate(-16.8 -7.72)"/><line class="cls-2" x1="48.84" y1="45.08" x2="58" y2="67.99"/><line class="cls-2" x1="46.73" y1="45.29" x2="55.82" y2="68"/><line class="cls-2" x1="44.61" y1="45.29" x2="53.69" y2="67.99"/><line class="cls-2" x1="42.55" y1="45.67" x2="51.57" y2="68.21"/><line class="cls-2" x1="42.47" y1="45.48" x2="33.72" y2="67.99"/><line class="cls-2" x1="42.61" y1="50.13" x2="35.67" y2="68.05"/><line class="cls-2" x1="43.73" y1="52.73" x2="37.88" y2="68.03"/><line class="cls-2" x1="44.87" y1="55.46" x2="39.95" y2="68.21"/><line class="cls-2" x1="44.16" y1="61.08" x2="47.06" y2="61.15"/><line class="cls-2" x1="43.52" y1="63.22" x2="48.01" y2="63.32"/><line class="cls-2" x1="42.82" y1="65.25" x2="48.7" y2="65.44"/><path class="cls-6" d="M49.2,43.37" transform="translate(-16.8 -7.72)"/><path class="cls-5" d="M49.2,44.37" transform="translate(-16.8 -7.72)"/><polygon class="cls-4" points="16.4 42.65 49.4 42.65 51.4 39.65 14.4 39.65 16.4 42.65"/><rect class="cls-4" x="16.4" y="43.75" width="33" height="1.63"/></g></svg>